# Original VIR rower part; generated by Scripts/build_rower_character_meshes.py
# Units: centimetres. Object: SM_RowerArm
mtllib SM_RowerArm.mtl
o SM_RowerArm
v 0.00000 8.00000 0.00000
v 0.00000 6.92820 4.50000
v 0.00000 4.00000 7.79423
v 0.00000 0.00000 9.00000
v 0.00000 -4.00000 7.79423
v 0.00000 -6.92820 4.50000
v 0.00000 -8.00000 0.00000
v 0.00000 -6.92820 -4.50000
v 0.00000 -4.00000 -7.79423
v 0.00000 -0.00000 -9.00000
v 0.00000 4.00000 -7.79423
v 0.00000 6.92820 -4.50000
v 15.00000 8.00000 0.00000
v 15.00000 6.92820 4.00000
v 15.00000 4.00000 6.92820
v 15.00000 0.00000 8.00000
v 15.00000 -4.00000 6.92820
v 15.00000 -6.92820 4.00000
v 15.00000 -8.00000 0.00000
v 15.00000 -6.92820 -4.00000
v 15.00000 -4.00000 -6.92820
v 15.00000 -0.00000 -8.00000
v 15.00000 4.00000 -6.92820
v 15.00000 6.92820 -4.00000
v 43.00000 6.00000 2.00000
v 43.00000 5.19615 5.00000
v 43.00000 3.00000 7.19615
v 43.00000 0.00000 8.00000
v 43.00000 -3.00000 7.19615
v 43.00000 -5.19615 5.00000
v 43.00000 -6.00000 2.00000
v 43.00000 -5.19615 -1.00000
v 43.00000 -3.00000 -3.19615
v 43.00000 -0.00000 -4.00000
v 43.00000 3.00000 -3.19615
v 43.00000 5.19615 -1.00000
v 55.00000 5.50000 3.00000
v 55.00000 4.76314 5.75000
v 55.00000 2.75000 7.76314
v 55.00000 0.00000 8.50000
v 55.00000 -2.75000 7.76314
v 55.00000 -4.76314 5.75000
v 55.00000 -5.50000 3.00000
v 55.00000 -4.76314 0.25000
v 55.00000 -2.75000 -1.76314
v 55.00000 -0.00000 -2.50000
v 55.00000 2.75000 -1.76314
v 55.00000 4.76314 0.25000
v 82.00000 4.50000 1.00000
v 82.00000 3.89711 3.25000
v 82.00000 2.25000 4.89711
v 82.00000 0.00000 5.50000
v 82.00000 -2.25000 4.89711
v 82.00000 -3.89711 3.25000
v 82.00000 -4.50000 1.00000
v 82.00000 -3.89711 -1.25000
v 82.00000 -2.25000 -2.89711
v 82.00000 -0.00000 -3.50000
v 82.00000 2.25000 -2.89711
v 82.00000 3.89711 -1.25000
v 93.00000 5.00000 0.00000
v 93.00000 4.33013 2.25000
v 93.00000 2.50000 3.89711
v 93.00000 0.00000 4.50000
v 93.00000 -2.50000 3.89711
v 93.00000 -4.33013 2.25000
v 93.00000 -5.00000 0.00000
v 93.00000 -4.33013 -2.25000
v 93.00000 -2.50000 -3.89711
v 93.00000 -0.00000 -4.50000
v 93.00000 2.50000 -3.89711
v 93.00000 4.33013 -2.25000
v 100.00000 4.00000 0.00000
v 100.00000 3.46410 2.00000
v 100.00000 2.00000 3.46410
v 100.00000 0.00000 4.00000
v 100.00000 -2.00000 3.46410
v 100.00000 -3.46410 2.00000
v 100.00000 -4.00000 0.00000
v 100.00000 -3.46410 -2.00000
v 100.00000 -2.00000 -3.46410
v 100.00000 -0.00000 -4.00000
v 100.00000 2.00000 -3.46410
v 100.00000 3.46410 -2.00000
usemtl RowerSleeve
f 1 2 14 13
f 2 3 15 14
f 3 4 16 15
f 4 5 17 16
f 5 6 18 17
f 6 7 19 18
f 7 8 20 19
f 8 9 21 20
f 9 10 22 21
f 10 11 23 22
f 11 12 24 23
f 12 1 13 24
f 13 14 26 25
f 14 15 27 26
f 15 16 28 27
f 16 17 29 28
f 17 18 30 29
f 18 19 31 30
f 19 20 32 31
f 20 21 33 32
f 21 22 34 33
f 22 23 35 34
f 23 24 36 35
f 24 13 25 36
f 25 26 38 37
f 26 27 39 38
f 27 28 40 39
f 28 29 41 40
f 29 30 42 41
f 30 31 43 42
f 31 32 44 43
f 32 33 45 44
f 33 34 46 45
f 34 35 47 46
f 35 36 48 47
f 36 25 37 48
usemtl RowerForearm
f 37 38 50 49
f 38 39 51 50
f 39 40 52 51
f 40 41 53 52
f 41 42 54 53
f 42 43 55 54
f 43 44 56 55
f 44 45 57 56
f 45 46 58 57
f 46 47 59 58
f 47 48 60 59
f 48 37 49 60
f 49 50 62 61
f 50 51 63 62
f 51 52 64 63
f 52 53 65 64
f 53 54 66 65
f 54 55 67 66
f 55 56 68 67
f 56 57 69 68
f 57 58 70 69
f 58 59 71 70
f 59 60 72 71
f 60 49 61 72
usemtl RowerHand
f 61 62 74 73
f 62 63 75 74
f 63 64 76 75
f 64 65 77 76
f 65 66 78 77
f 66 67 79 78
f 67 68 80 79
f 68 69 81 80
f 69 70 82 81
f 70 71 83 82
f 71 72 84 83
f 72 61 73 84
usemtl RowerSleeve
f 12 11 10 9 8 7 6 5 4 3 2 1
usemtl RowerHand
f 73 74 75 76 77 78 79 80 81 82 83 84
