# Original VIR rower part; generated by Scripts/build_rower_character_meshes.py
# Units: centimetres. Object: SM_RowerTorso
mtllib SM_RowerTorso.mtl
o SM_RowerTorso
v 11.00000 0.00000 -37.00000
v 9.52628 7.50000 -37.00000
v 5.50000 12.99038 -37.00000
v 0.00000 15.00000 -37.00000
v -5.50000 12.99038 -37.00000
v -9.52628 7.50000 -37.00000
v -11.00000 0.00000 -37.00000
v -9.52628 -7.50000 -37.00000
v -5.50000 -12.99038 -37.00000
v -0.00000 -15.00000 -37.00000
v 5.50000 -12.99038 -37.00000
v 9.52628 -7.50000 -37.00000
v 15.00000 0.00000 -31.00000
v 12.99038 9.00000 -31.00000
v 7.50000 15.58846 -31.00000
v 0.00000 18.00000 -31.00000
v -7.50000 15.58846 -31.00000
v -12.99038 9.00000 -31.00000
v -15.00000 0.00000 -31.00000
v -12.99038 -9.00000 -31.00000
v -7.50000 -15.58846 -31.00000
v -0.00000 -18.00000 -31.00000
v 7.50000 -15.58846 -31.00000
v 12.99038 -9.00000 -31.00000
v 17.00000 0.00000 -8.00000
v 14.72243 10.00000 -8.00000
v 8.50000 17.32051 -8.00000
v 0.00000 20.00000 -8.00000
v -8.50000 17.32051 -8.00000
v -14.72243 10.00000 -8.00000
v -17.00000 0.00000 -8.00000
v -14.72243 -10.00000 -8.00000
v -8.50000 -17.32051 -8.00000
v -0.00000 -20.00000 -8.00000
v 8.50000 -17.32051 -8.00000
v 14.72243 -10.00000 -8.00000
v 17.00000 0.00000 14.00000
v 14.45448 12.50000 14.00000
v 7.50000 21.65064 14.00000
v -2.00000 25.00000 14.00000
v -11.50000 21.65064 14.00000
v -18.45448 12.50000 14.00000
v -21.00000 0.00000 14.00000
v -18.45448 -12.50000 14.00000
v -11.50000 -21.65064 14.00000
v -2.00000 -25.00000 14.00000
v 7.50000 -21.65064 14.00000
v 14.45448 -12.50000 14.00000
v 15.00000 0.00000 28.00000
v 12.58846 12.00000 28.00000
v 6.00000 20.78461 28.00000
v -3.00000 24.00000 28.00000
v -12.00000 20.78461 28.00000
v -18.58846 12.00000 28.00000
v -21.00000 0.00000 28.00000
v -18.58846 -12.00000 28.00000
v -12.00000 -20.78461 28.00000
v -3.00000 -24.00000 28.00000
v 6.00000 -20.78461 28.00000
v 12.58846 -12.00000 28.00000
v 9.00000 0.00000 35.00000
v 7.66025 6.00000 35.00000
v 4.00000 10.39230 35.00000
v -1.00000 12.00000 35.00000
v -6.00000 10.39230 35.00000
v -9.66025 6.00000 35.00000
v -11.00000 0.00000 35.00000
v -9.66025 -6.00000 35.00000
v -6.00000 -10.39230 35.00000
v -1.00000 -12.00000 35.00000
v 4.00000 -10.39230 35.00000
v 7.66025 -6.00000 35.00000
v 7.00000 0.00000 39.00000
v 6.06218 4.00000 39.00000
v 3.50000 6.92820 39.00000
v 0.00000 8.00000 39.00000
v -3.50000 6.92820 39.00000
v -6.06218 4.00000 39.00000
v -7.00000 0.00000 39.00000
v -6.06218 -4.00000 39.00000
v -3.50000 -6.92820 39.00000
v -0.00000 -8.00000 39.00000
v 3.50000 -6.92820 39.00000
v 6.06218 -4.00000 39.00000
v 8.00000 0.00000 38.00000
v 7.19615 3.50000 38.00000
v 5.00000 6.06218 38.00000
v 2.00000 7.00000 38.00000
v -1.00000 6.06218 38.00000
v -3.19615 3.50000 38.00000
v -4.00000 0.00000 38.00000
v -3.19615 -3.50000 38.00000
v -1.00000 -6.06218 38.00000
v 2.00000 -7.00000 38.00000
v 5.00000 -6.06218 38.00000
v 7.19615 -3.50000 38.00000
v 10.00000 0.00000 45.00000
v 9.06218 4.00000 45.00000
v 6.50000 6.92820 45.00000
v 3.00000 8.00000 45.00000
v -0.50000 6.92820 45.00000
v -3.06218 4.00000 45.00000
v -4.00000 0.00000 45.00000
v -3.06218 -4.00000 45.00000
v -0.50000 -6.92820 45.00000
v 3.00000 -8.00000 45.00000
v 6.50000 -6.92820 45.00000
v 9.06218 -4.00000 45.00000
v 15.00000 0.00000 48.00000
v 13.66025 5.00000 48.00000
v 10.00000 8.66025 48.00000
v 5.00000 10.00000 48.00000
v 0.00000 8.66025 48.00000
v -3.66025 5.00000 48.00000
v -5.00000 0.00000 48.00000
v -3.66025 -5.00000 48.00000
v -0.00000 -8.66025 48.00000
v 5.00000 -10.00000 48.00000
v 10.00000 -8.66025 48.00000
v 13.66025 -5.00000 48.00000
v 18.00000 0.00000 59.00000
v 16.52628 5.50000 59.00000
v 12.50000 9.52628 59.00000
v 7.00000 11.00000 59.00000
v 1.50000 9.52628 59.00000
v -2.52628 5.50000 59.00000
v -4.00000 0.00000 59.00000
v -2.52628 -5.50000 59.00000
v 1.50000 -9.52628 59.00000
v 7.00000 -11.00000 59.00000
v 12.50000 -9.52628 59.00000
v 16.52628 -5.50000 59.00000
v 15.00000 0.00000 68.00000
v 13.92820 4.50000 68.00000
v 11.00000 7.79423 68.00000
v 7.00000 9.00000 68.00000
v 3.00000 7.79423 68.00000
v 0.07180 4.50000 68.00000
v -1.00000 0.00000 68.00000
v 0.07180 -4.50000 68.00000
v 3.00000 -7.79423 68.00000
v 7.00000 -9.00000 68.00000
v 11.00000 -7.79423 68.00000
v 13.92820 -4.50000 68.00000
v 9.00000 0.00000 72.00000
v 8.59808 2.00000 72.00000
v 7.50000 3.46410 72.00000
v 6.00000 4.00000 72.00000
v 4.50000 3.46410 72.00000
v 3.40192 2.00000 72.00000
v 3.00000 0.00000 72.00000
v 3.40192 -2.00000 72.00000
v 4.50000 -3.46410 72.00000
v 6.00000 -4.00000 72.00000
v 7.50000 -3.46410 72.00000
v 8.59808 -2.00000 72.00000
v 15.00000 0.00000 63.00000
v 13.79423 5.00000 63.00000
v 10.50000 8.66025 63.00000
v 6.00000 10.00000 63.00000
v 1.50000 8.66025 63.00000
v -1.79423 5.00000 63.00000
v -3.00000 0.00000 63.00000
v -1.79423 -5.00000 63.00000
v 1.50000 -8.66025 63.00000
v 6.00000 -10.00000 63.00000
v 10.50000 -8.66025 63.00000
v 13.79423 -5.00000 63.00000
v 15.00000 0.00000 68.00000
v 13.79423 5.00000 68.00000
v 10.50000 8.66025 68.00000
v 6.00000 10.00000 68.00000
v 1.50000 8.66025 68.00000
v -1.79423 5.00000 68.00000
v -3.00000 0.00000 68.00000
v -1.79423 -5.00000 68.00000
v 1.50000 -8.66025 68.00000
v 6.00000 -10.00000 68.00000
v 10.50000 -8.66025 68.00000
v 13.79423 -5.00000 68.00000
v 9.00000 0.00000 73.00000
v 8.46410 2.50000 73.00000
v 7.00000 4.33013 73.00000
v 5.00000 5.00000 73.00000
v 3.00000 4.33013 73.00000
v 1.53590 2.50000 73.00000
v 1.00000 0.00000 73.00000
v 1.53590 -2.50000 73.00000
v 3.00000 -4.33013 73.00000
v 5.00000 -5.00000 73.00000
v 7.00000 -4.33013 73.00000
v 8.46410 -2.50000 73.00000
usemtl RowerJersey
f 1 2 14 13
f 2 3 15 14
f 3 4 16 15
f 4 5 17 16
f 5 6 18 17
f 6 7 19 18
f 7 8 20 19
f 8 9 21 20
f 9 10 22 21
f 10 11 23 22
f 11 12 24 23
f 12 1 13 24
f 13 14 26 25
f 14 15 27 26
f 15 16 28 27
f 16 17 29 28
f 17 18 30 29
f 18 19 31 30
f 19 20 32 31
f 20 21 33 32
f 21 22 34 33
f 22 23 35 34
f 23 24 36 35
f 24 13 25 36
f 25 26 38 37
f 26 27 39 38
f 27 28 40 39
f 28 29 41 40
f 29 30 42 41
f 30 31 43 42
f 31 32 44 43
f 32 33 45 44
f 33 34 46 45
f 34 35 47 46
f 35 36 48 47
f 36 25 37 48
f 37 38 50 49
f 38 39 51 50
f 39 40 52 51
f 40 41 53 52
f 41 42 54 53
f 42 43 55 54
f 43 44 56 55
f 44 45 57 56
f 45 46 58 57
f 46 47 59 58
f 47 48 60 59
f 48 37 49 60
f 49 50 62 61
f 50 51 63 62
f 51 52 64 63
f 52 53 65 64
f 53 54 66 65
f 54 55 67 66
f 55 56 68 67
f 56 57 69 68
f 57 58 70 69
f 58 59 71 70
f 59 60 72 71
f 60 49 61 72
usemtl RowerCollar
f 61 62 74 73
f 62 63 75 74
f 63 64 76 75
f 64 65 77 76
f 65 66 78 77
f 66 67 79 78
f 67 68 80 79
f 68 69 81 80
f 69 70 82 81
f 70 71 83 82
f 71 72 84 83
f 72 61 73 84
usemtl RowerJersey
f 12 11 10 9 8 7 6 5 4 3 2 1
usemtl RowerCollar
f 73 74 75 76 77 78 79 80 81 82 83 84
usemtl RowerSkin
f 85 86 98 97
f 86 87 99 98
f 87 88 100 99
f 88 89 101 100
f 89 90 102 101
f 90 91 103 102
f 91 92 104 103
f 92 93 105 104
f 93 94 106 105
f 94 95 107 106
f 95 96 108 107
f 96 85 97 108
f 97 98 110 109
f 98 99 111 110
f 99 100 112 111
f 100 101 113 112
f 101 102 114 113
f 102 103 115 114
f 103 104 116 115
f 104 105 117 116
f 105 106 118 117
f 106 107 119 118
f 107 108 120 119
f 108 97 109 120
f 109 110 122 121
f 110 111 123 122
f 111 112 124 123
f 112 113 125 124
f 113 114 126 125
f 114 115 127 126
f 115 116 128 127
f 116 117 129 128
f 117 118 130 129
f 118 119 131 130
f 119 120 132 131
f 120 109 121 132
f 121 122 134 133
f 122 123 135 134
f 123 124 136 135
f 124 125 137 136
f 125 126 138 137
f 126 127 139 138
f 127 128 140 139
f 128 129 141 140
f 129 130 142 141
f 130 131 143 142
f 131 132 144 143
f 132 121 133 144
f 133 134 146 145
f 134 135 147 146
f 135 136 148 147
f 136 137 149 148
f 137 138 150 149
f 138 139 151 150
f 139 140 152 151
f 140 141 153 152
f 141 142 154 153
f 142 143 155 154
f 143 144 156 155
f 144 133 145 156
f 96 95 94 93 92 91 90 89 88 87 86 85
f 145 146 147 148 149 150 151 152 153 154 155 156
usemtl RowerCap
f 157 158 170 169
f 158 159 171 170
f 159 160 172 171
f 160 161 173 172
f 161 162 174 173
f 162 163 175 174
f 163 164 176 175
f 164 165 177 176
f 165 166 178 177
f 166 167 179 178
f 167 168 180 179
f 168 157 169 180
f 169 170 182 181
f 170 171 183 182
f 171 172 184 183
f 172 173 185 184
f 173 174 186 185
f 174 175 187 186
f 175 176 188 187
f 176 177 189 188
f 177 178 190 189
f 178 179 191 190
f 179 180 192 191
f 180 169 181 192
f 168 167 166 165 164 163 162 161 160 159 158 157
f 181 182 183 184 185 186 187 188 189 190 191 192
