# Original VIR sculling oar; generated by Scripts/build_scull_oar_mesh.py
# Units: centimetres. Origin: oarlock. +X: outboard blade.
mtllib SM_ScullOar.mtl
o SM_ScullOar
v -90.00000 1.80000 0.00000
v -90.00000 1.55885 0.90000
v -90.00000 0.90000 1.55885
v -90.00000 0.00000 1.80000
v -90.00000 -0.90000 1.55885
v -90.00000 -1.55885 0.90000
v -90.00000 -1.80000 0.00000
v -90.00000 -1.55885 -0.90000
v -90.00000 -0.90000 -1.55885
v -90.00000 -0.00000 -1.80000
v -90.00000 0.90000 -1.55885
v -90.00000 1.55885 -0.90000
v -86.00000 2.20000 0.00000
v -86.00000 1.90526 1.10000
v -86.00000 1.10000 1.90526
v -86.00000 0.00000 2.20000
v -86.00000 -1.10000 1.90526
v -86.00000 -1.90526 1.10000
v -86.00000 -2.20000 0.00000
v -86.00000 -1.90526 -1.10000
v -86.00000 -1.10000 -1.90526
v -86.00000 -0.00000 -2.20000
v -86.00000 1.10000 -1.90526
v -86.00000 1.90526 -1.10000
v -68.00000 2.30000 0.00000
v -68.00000 1.99186 1.15000
v -68.00000 1.15000 1.99186
v -68.00000 0.00000 2.30000
v -68.00000 -1.15000 1.99186
v -68.00000 -1.99186 1.15000
v -68.00000 -2.30000 0.00000
v -68.00000 -1.99186 -1.15000
v -68.00000 -1.15000 -1.99186
v -68.00000 -0.00000 -2.30000
v -68.00000 1.15000 -1.99186
v -68.00000 1.99186 -1.15000
v -52.00000 1.90000 0.00000
v -52.00000 1.64545 0.95000
v -52.00000 0.95000 1.64545
v -52.00000 0.00000 1.90000
v -52.00000 -0.95000 1.64545
v -52.00000 -1.64545 0.95000
v -52.00000 -1.90000 0.00000
v -52.00000 -1.64545 -0.95000
v -52.00000 -0.95000 -1.64545
v -52.00000 -0.00000 -1.90000
v -52.00000 0.95000 -1.64545
v -52.00000 1.64545 -0.95000
v -52.00000 1.90000 0.00000
v -52.00000 1.64545 0.95000
v -52.00000 0.95000 1.64545
v -52.00000 0.00000 1.90000
v -52.00000 -0.95000 1.64545
v -52.00000 -1.64545 0.95000
v -52.00000 -1.90000 0.00000
v -52.00000 -1.64545 -0.95000
v -52.00000 -0.95000 -1.64545
v -52.00000 -0.00000 -1.90000
v -52.00000 0.95000 -1.64545
v -52.00000 1.64545 -0.95000
v -25.00000 2.20000 0.00000
v -25.00000 1.90526 1.10000
v -25.00000 1.10000 1.90526
v -25.00000 0.00000 2.20000
v -25.00000 -1.10000 1.90526
v -25.00000 -1.90526 1.10000
v -25.00000 -2.20000 0.00000
v -25.00000 -1.90526 -1.10000
v -25.00000 -1.10000 -1.90526
v -25.00000 -0.00000 -2.20000
v -25.00000 1.10000 -1.90526
v -25.00000 1.90526 -1.10000
v -8.00000 2.60000 0.00000
v -8.00000 2.25167 1.30000
v -8.00000 1.30000 2.25167
v -8.00000 0.00000 2.60000
v -8.00000 -1.30000 2.25167
v -8.00000 -2.25167 1.30000
v -8.00000 -2.60000 0.00000
v -8.00000 -2.25167 -1.30000
v -8.00000 -1.30000 -2.25167
v -8.00000 -0.00000 -2.60000
v -8.00000 1.30000 -2.25167
v -8.00000 2.25167 -1.30000
v 12.00000 2.50000 0.00000
v 12.00000 2.16506 1.25000
v 12.00000 1.25000 2.16506
v 12.00000 0.00000 2.50000
v 12.00000 -1.25000 2.16506
v 12.00000 -2.16506 1.25000
v 12.00000 -2.50000 0.00000
v 12.00000 -2.16506 -1.25000
v 12.00000 -1.25000 -2.16506
v 12.00000 -0.00000 -2.50000
v 12.00000 1.25000 -2.16506
v 12.00000 2.16506 -1.25000
v 75.00000 2.00000 0.00000
v 75.00000 1.73205 1.00000
v 75.00000 1.00000 1.73205
v 75.00000 0.00000 2.00000
v 75.00000 -1.00000 1.73205
v 75.00000 -1.73205 1.00000
v 75.00000 -2.00000 0.00000
v 75.00000 -1.73205 -1.00000
v 75.00000 -1.00000 -1.73205
v 75.00000 -0.00000 -2.00000
v 75.00000 1.00000 -1.73205
v 75.00000 1.73205 -1.00000
v 130.00000 1.60000 0.00000
v 130.00000 1.38564 0.80000
v 130.00000 0.80000 1.38564
v 130.00000 0.00000 1.60000
v 130.00000 -0.80000 1.38564
v 130.00000 -1.38564 0.80000
v 130.00000 -1.60000 0.00000
v 130.00000 -1.38564 -0.80000
v 130.00000 -0.80000 -1.38564
v 130.00000 -0.00000 -1.60000
v 130.00000 0.80000 -1.38564
v 130.00000 1.38564 -0.80000
v 158.00000 1.30000 0.00000
v 158.00000 1.12583 0.65000
v 158.00000 0.65000 1.12583
v 158.00000 0.00000 1.30000
v 158.00000 -0.65000 1.12583
v 158.00000 -1.12583 0.65000
v 158.00000 -1.30000 0.00000
v 158.00000 -1.12583 -0.65000
v 158.00000 -0.65000 -1.12583
v 158.00000 -0.00000 -1.30000
v 158.00000 0.65000 -1.12583
v 158.00000 1.12583 -0.65000
v -9.00000 2.70000 0.00000
v -9.00000 2.33827 1.35000
v -9.00000 1.35000 2.33827
v -9.00000 0.00000 2.70000
v -9.00000 -1.35000 2.33827
v -9.00000 -2.33827 1.35000
v -9.00000 -2.70000 0.00000
v -9.00000 -2.33827 -1.35000
v -9.00000 -1.35000 -2.33827
v -9.00000 -0.00000 -2.70000
v -9.00000 1.35000 -2.33827
v -9.00000 2.33827 -1.35000
v -7.00000 3.40000 0.00000
v -7.00000 2.94449 1.70000
v -7.00000 1.70000 2.94449
v -7.00000 0.00000 3.40000
v -7.00000 -1.70000 2.94449
v -7.00000 -2.94449 1.70000
v -7.00000 -3.40000 0.00000
v -7.00000 -2.94449 -1.70000
v -7.00000 -1.70000 -2.94449
v -7.00000 -0.00000 -3.40000
v -7.00000 1.70000 -2.94449
v -7.00000 2.94449 -1.70000
v 7.00000 3.40000 0.00000
v 7.00000 2.94449 1.70000
v 7.00000 1.70000 2.94449
v 7.00000 0.00000 3.40000
v 7.00000 -1.70000 2.94449
v 7.00000 -2.94449 1.70000
v 7.00000 -3.40000 0.00000
v 7.00000 -2.94449 -1.70000
v 7.00000 -1.70000 -2.94449
v 7.00000 -0.00000 -3.40000
v 7.00000 1.70000 -2.94449
v 7.00000 2.94449 -1.70000
v 9.00000 2.70000 0.00000
v 9.00000 2.33827 1.35000
v 9.00000 1.35000 2.33827
v 9.00000 0.00000 2.70000
v 9.00000 -1.35000 2.33827
v 9.00000 -2.33827 1.35000
v 9.00000 -2.70000 0.00000
v 9.00000 -2.33827 -1.35000
v 9.00000 -1.35000 -2.33827
v 9.00000 -0.00000 -2.70000
v 9.00000 1.35000 -2.33827
v 9.00000 2.33827 -1.35000
v 156.00000 -1.50000 0.50000
v 156.00000 -1.50000 -0.70000
v 156.00000 -0.75000 -0.77500
v 156.00000 -0.75000 -1.97500
v 156.00000 0.00000 -1.20000
v 156.00000 0.00000 -2.40000
v 156.00000 0.75000 -0.77500
v 156.00000 0.75000 -1.97500
v 156.00000 1.50000 0.50000
v 156.00000 1.50000 -0.70000
v 164.00000 -5.00000 0.50000
v 164.00000 -5.00000 -0.70000
v 164.00000 -2.50000 -0.77500
v 164.00000 -2.50000 -1.97500
v 164.00000 0.00000 -1.20000
v 164.00000 0.00000 -2.40000
v 164.00000 2.50000 -0.77500
v 164.00000 2.50000 -1.97500
v 164.00000 5.00000 0.50000
v 164.00000 5.00000 -0.70000
v 174.00000 -8.50000 0.50000
v 174.00000 -8.50000 -0.70000
v 174.00000 -4.25000 -0.77500
v 174.00000 -4.25000 -1.97500
v 174.00000 0.00000 -1.20000
v 174.00000 0.00000 -2.40000
v 174.00000 4.25000 -0.77500
v 174.00000 4.25000 -1.97500
v 174.00000 8.50000 0.50000
v 174.00000 8.50000 -0.70000
v 190.00000 -10.50000 0.50000
v 190.00000 -10.50000 -0.70000
v 190.00000 -5.25000 -0.77500
v 190.00000 -5.25000 -1.97500
v 190.00000 0.00000 -1.20000
v 190.00000 0.00000 -2.40000
v 190.00000 5.25000 -0.77500
v 190.00000 5.25000 -1.97500
v 190.00000 10.50000 0.50000
v 190.00000 10.50000 -0.70000
v 207.00000 -10.50000 0.50000
v 207.00000 -10.50000 -0.70000
v 207.00000 -5.25000 -0.77500
v 207.00000 -5.25000 -1.97500
v 207.00000 0.00000 -1.20000
v 207.00000 0.00000 -2.40000
v 207.00000 5.25000 -0.77500
v 207.00000 5.25000 -1.97500
v 207.00000 10.50000 0.50000
v 207.00000 10.50000 -0.70000
v 218.00000 -8.00000 0.50000
v 218.00000 -8.00000 -0.70000
v 218.00000 -4.00000 -0.77500
v 218.00000 -4.00000 -1.97500
v 218.00000 0.00000 -1.20000
v 218.00000 0.00000 -2.40000
v 218.00000 4.00000 -0.77500
v 218.00000 4.00000 -1.97500
v 218.00000 8.00000 0.50000
v 218.00000 8.00000 -0.70000
v 224.00000 -2.50000 0.50000
v 224.00000 -2.50000 -0.70000
v 224.00000 -1.25000 -0.77500
v 224.00000 -1.25000 -1.97500
v 224.00000 0.00000 -1.20000
v 224.00000 0.00000 -2.40000
v 224.00000 1.25000 -0.77500
v 224.00000 1.25000 -1.97500
v 224.00000 2.50000 0.50000
v 224.00000 2.50000 -0.70000
usemtl Grip
f 1 2 14 13
f 2 3 15 14
f 3 4 16 15
f 4 5 17 16
f 5 6 18 17
f 6 7 19 18
f 7 8 20 19
f 8 9 21 20
f 9 10 22 21
f 10 11 23 22
f 11 12 24 23
f 12 1 13 24
f 13 14 26 25
f 14 15 27 26
f 15 16 28 27
f 16 17 29 28
f 17 18 30 29
f 18 19 31 30
f 19 20 32 31
f 20 21 33 32
f 21 22 34 33
f 22 23 35 34
f 23 24 36 35
f 24 13 25 36
f 25 26 38 37
f 26 27 39 38
f 27 28 40 39
f 28 29 41 40
f 29 30 42 41
f 30 31 43 42
f 31 32 44 43
f 32 33 45 44
f 33 34 46 45
f 34 35 47 46
f 35 36 48 47
f 36 25 37 48
f 12 11 10 9 8 7 6 5 4 3 2 1
f 37 38 39 40 41 42 43 44 45 46 47 48
usemtl Shaft
f 49 50 62 61
f 50 51 63 62
f 51 52 64 63
f 52 53 65 64
f 53 54 66 65
f 54 55 67 66
f 55 56 68 67
f 56 57 69 68
f 57 58 70 69
f 58 59 71 70
f 59 60 72 71
f 60 49 61 72
f 61 62 74 73
f 62 63 75 74
f 63 64 76 75
f 64 65 77 76
f 65 66 78 77
f 66 67 79 78
f 67 68 80 79
f 68 69 81 80
f 69 70 82 81
f 70 71 83 82
f 71 72 84 83
f 72 61 73 84
f 73 74 86 85
f 74 75 87 86
f 75 76 88 87
f 76 77 89 88
f 77 78 90 89
f 78 79 91 90
f 79 80 92 91
f 80 81 93 92
f 81 82 94 93
f 82 83 95 94
f 83 84 96 95
f 84 73 85 96
f 85 86 98 97
f 86 87 99 98
f 87 88 100 99
f 88 89 101 100
f 89 90 102 101
f 90 91 103 102
f 91 92 104 103
f 92 93 105 104
f 93 94 106 105
f 94 95 107 106
f 95 96 108 107
f 96 85 97 108
f 97 98 110 109
f 98 99 111 110
f 99 100 112 111
f 100 101 113 112
f 101 102 114 113
f 102 103 115 114
f 103 104 116 115
f 104 105 117 116
f 105 106 118 117
f 106 107 119 118
f 107 108 120 119
f 108 97 109 120
f 109 110 122 121
f 110 111 123 122
f 111 112 124 123
f 112 113 125 124
f 113 114 126 125
f 114 115 127 126
f 115 116 128 127
f 116 117 129 128
f 117 118 130 129
f 118 119 131 130
f 119 120 132 131
f 120 109 121 132
f 60 59 58 57 56 55 54 53 52 51 50 49
f 121 122 123 124 125 126 127 128 129 130 131 132
usemtl Collar
f 133 134 146 145
f 134 135 147 146
f 135 136 148 147
f 136 137 149 148
f 137 138 150 149
f 138 139 151 150
f 139 140 152 151
f 140 141 153 152
f 141 142 154 153
f 142 143 155 154
f 143 144 156 155
f 144 133 145 156
f 145 146 158 157
f 146 147 159 158
f 147 148 160 159
f 148 149 161 160
f 149 150 162 161
f 150 151 163 162
f 151 152 164 163
f 152 153 165 164
f 153 154 166 165
f 154 155 167 166
f 155 156 168 167
f 156 145 157 168
f 157 158 170 169
f 158 159 171 170
f 159 160 172 171
f 160 161 173 172
f 161 162 174 173
f 162 163 175 174
f 163 164 176 175
f 164 165 177 176
f 165 166 178 177
f 166 167 179 178
f 167 168 180 179
f 168 157 169 180
f 144 143 142 141 140 139 138 137 136 135 134 133
f 169 170 171 172 173 174 175 176 177 178 179 180
usemtl Blade
f 181 191 193 183
f 184 194 192 182
f 183 193 195 185
f 186 196 194 184
f 185 195 197 187
f 188 198 196 186
f 187 197 199 189
f 190 200 198 188
f 181 182 192 191
f 190 189 199 200
f 191 201 203 193
f 194 204 202 192
f 193 203 205 195
f 196 206 204 194
f 195 205 207 197
f 198 208 206 196
f 197 207 209 199
f 200 210 208 198
f 191 192 202 201
f 200 199 209 210
f 201 211 213 203
f 204 214 212 202
f 203 213 215 205
f 206 216 214 204
f 205 215 217 207
f 208 218 216 206
f 207 217 219 209
f 210 220 218 208
f 201 202 212 211
f 210 209 219 220
f 211 221 223 213
f 214 224 222 212
f 213 223 225 215
f 216 226 224 214
f 215 225 227 217
f 218 228 226 216
f 217 227 229 219
f 220 230 228 218
f 211 212 222 221
f 220 219 229 230
f 221 231 233 223
f 224 234 232 222
f 223 233 235 225
f 226 236 234 224
f 225 235 237 227
f 228 238 236 226
f 227 237 239 229
f 230 240 238 228
f 221 222 232 231
f 230 229 239 240
f 231 241 243 233
f 234 244 242 232
f 233 243 245 235
f 236 246 244 234
f 235 245 247 237
f 238 248 246 236
f 237 247 249 239
f 240 250 248 238
f 231 232 242 241
f 240 239 249 250
f 182 184 183 181
f 184 186 185 183
f 186 188 187 185
f 188 190 189 187
f 241 243 244 242
f 243 245 246 244
f 245 247 248 246
f 247 249 250 248
