# Original VIR single-scull hull; generated by Scripts/build_scull_hull_mesh.py
# Units: centimetres. +X: bow. BoatRoot is the origin.
mtllib SM_ScullHull.mtl
o SM_ScullHull
v -420.00000 -1.20000 39.00000
v -420.00000 -1.17600 33.00000
v -420.00000 -1.12800 6.00000
v -420.00000 -0.80400 -8.00000
v -420.00000 0.00000 -20.00000
v -420.00000 0.80400 -8.00000
v -420.00000 1.12800 6.00000
v -420.00000 1.17600 33.00000
v -420.00000 1.20000 39.00000
v -390.00000 -7.00000 47.00000
v -390.00000 -6.86000 41.00000
v -390.00000 -6.58000 6.00000
v -390.00000 -4.69000 -18.00000
v -390.00000 0.00000 -30.00000
v -390.00000 4.69000 -18.00000
v -390.00000 6.58000 6.00000
v -390.00000 6.86000 41.00000
v -390.00000 7.00000 47.00000
v -320.00000 -17.00000 51.00000
v -320.00000 -16.66000 45.00000
v -320.00000 -15.98000 6.00000
v -320.00000 -11.39000 -26.00000
v -320.00000 0.00000 -38.00000
v -320.00000 11.39000 -26.00000
v -320.00000 15.98000 6.00000
v -320.00000 16.66000 45.00000
v -320.00000 17.00000 51.00000
v -220.00000 -25.00000 54.00000
v -220.00000 -24.50000 48.00000
v -220.00000 -23.50000 6.00000
v -220.00000 -16.75000 -31.00000
v -220.00000 0.00000 -43.00000
v -220.00000 16.75000 -31.00000
v -220.00000 23.50000 6.00000
v -220.00000 24.50000 48.00000
v -220.00000 25.00000 54.00000
v -145.00000 -29.00000 55.00000
v -145.00000 -28.42000 49.00000
v -145.00000 -27.26000 6.00000
v -145.00000 -19.43000 -32.00000
v -145.00000 0.00000 -44.00000
v -145.00000 19.43000 -32.00000
v -145.00000 27.26000 6.00000
v -145.00000 28.42000 49.00000
v -145.00000 29.00000 55.00000
v -70.00000 -31.00000 55.00000
v -70.00000 -30.38000 49.00000
v -70.00000 -29.14000 6.00000
v -70.00000 -20.77000 -32.00000
v -70.00000 0.00000 -44.00000
v -70.00000 20.77000 -32.00000
v -70.00000 29.14000 6.00000
v -70.00000 30.38000 49.00000
v -70.00000 31.00000 55.00000
v 0.00000 -32.00000 55.00000
v 0.00000 -31.36000 49.00000
v 0.00000 -30.08000 6.00000
v 0.00000 -21.44000 -32.00000
v 0.00000 0.00000 -44.00000
v 0.00000 21.44000 -32.00000
v 0.00000 30.08000 6.00000
v 0.00000 31.36000 49.00000
v 0.00000 32.00000 55.00000
v 70.00000 -31.00000 55.00000
v 70.00000 -30.38000 49.00000
v 70.00000 -29.14000 6.00000
v 70.00000 -20.77000 -32.00000
v 70.00000 0.00000 -44.00000
v 70.00000 20.77000 -32.00000
v 70.00000 29.14000 6.00000
v 70.00000 30.38000 49.00000
v 70.00000 31.00000 55.00000
v 145.00000 -29.00000 55.00000
v 145.00000 -28.42000 49.00000
v 145.00000 -27.26000 6.00000
v 145.00000 -19.43000 -32.00000
v 145.00000 0.00000 -44.00000
v 145.00000 19.43000 -32.00000
v 145.00000 27.26000 6.00000
v 145.00000 28.42000 49.00000
v 145.00000 29.00000 55.00000
v 220.00000 -25.00000 54.00000
v 220.00000 -24.50000 48.00000
v 220.00000 -23.50000 6.00000
v 220.00000 -16.75000 -31.00000
v 220.00000 0.00000 -43.00000
v 220.00000 16.75000 -31.00000
v 220.00000 23.50000 6.00000
v 220.00000 24.50000 48.00000
v 220.00000 25.00000 54.00000
v 320.00000 -17.00000 51.00000
v 320.00000 -16.66000 45.00000
v 320.00000 -15.98000 6.00000
v 320.00000 -11.39000 -26.00000
v 320.00000 0.00000 -38.00000
v 320.00000 11.39000 -26.00000
v 320.00000 15.98000 6.00000
v 320.00000 16.66000 45.00000
v 320.00000 17.00000 51.00000
v 390.00000 -7.00000 47.00000
v 390.00000 -6.86000 41.00000
v 390.00000 -6.58000 6.00000
v 390.00000 -4.69000 -18.00000
v 390.00000 0.00000 -30.00000
v 390.00000 4.69000 -18.00000
v 390.00000 6.58000 6.00000
v 390.00000 6.86000 41.00000
v 390.00000 7.00000 47.00000
v 420.00000 -1.20000 39.00000
v 420.00000 -1.17600 33.00000
v 420.00000 -1.12800 6.00000
v 420.00000 -0.80400 -8.00000
v 420.00000 0.00000 -20.00000
v 420.00000 0.80400 -8.00000
v 420.00000 1.12800 6.00000
v 420.00000 1.17600 33.00000
v 420.00000 1.20000 39.00000
v -145.00000 -19.00000 55.00000
v -70.00000 -19.00000 55.00000
v -145.00000 19.00000 55.00000
v -70.00000 19.00000 55.00000
v -145.00000 -19.00000 29.00000
v -70.00000 -19.00000 29.00000
v -145.00000 19.00000 29.00000
v -70.00000 19.00000 29.00000
v -70.00000 -19.00000 55.00000
v 0.00000 -19.00000 55.00000
v -70.00000 19.00000 55.00000
v 0.00000 19.00000 55.00000
v -70.00000 -19.00000 29.00000
v 0.00000 -19.00000 29.00000
v -70.00000 19.00000 29.00000
v 0.00000 19.00000 29.00000
v 0.00000 -19.00000 55.00000
v 70.00000 -19.00000 55.00000
v 0.00000 19.00000 55.00000
v 70.00000 19.00000 55.00000
v 0.00000 -19.00000 29.00000
v 70.00000 -19.00000 29.00000
v 0.00000 19.00000 29.00000
v 70.00000 19.00000 29.00000
v 70.00000 -19.00000 55.00000
v 145.00000 -19.00000 55.00000
v 70.00000 19.00000 55.00000
v 145.00000 19.00000 55.00000
v 70.00000 -19.00000 29.00000
v 145.00000 -19.00000 29.00000
v 70.00000 19.00000 29.00000
v 145.00000 19.00000 29.00000
v -55.00000 -25.99294 52.36961
v -56.00713 -26.81663 52.35723
v -56.42429 -27.74773 51.54980
v -56.00713 -28.24083 50.42031
v -55.00000 -28.00706 49.63039
v -53.99287 -27.18337 49.64277
v -53.57571 -26.25227 50.45020
v -53.99287 -25.75917 51.57969
v 0.00000 -93.99294 102.36961
v -1.00713 -94.81663 102.35723
v -1.42429 -95.74773 101.54980
v -1.00713 -96.24083 100.42031
v -0.00000 -96.00706 99.63039
v 1.00713 -95.18337 99.64277
v 1.42429 -94.25227 100.45020
v 1.00713 -93.75917 101.57969
v 55.00000 -25.99294 52.36961
v 53.99287 -25.75917 51.57969
v 53.57571 -26.25227 50.45020
v 53.99287 -27.18337 49.64277
v 55.00000 -28.00706 49.63039
v 56.00713 -28.24083 50.42031
v 56.42429 -27.74773 51.54980
v 56.00713 -26.81663 52.35723
v 0.00000 -93.99294 102.36961
v -1.00713 -93.75917 101.57969
v -1.42429 -94.25227 100.45020
v -1.00713 -95.18337 99.64277
v -0.00000 -96.00706 99.63039
v 1.00713 -96.24083 100.42031
v 1.42429 -95.74773 101.54980
v 1.00713 -94.81663 102.35723
v 0.00000 -91.80000 94.00000
v -2.26274 -92.73726 94.00000
v -3.20000 -95.00000 94.00000
v -2.26274 -97.26274 94.00000
v -0.00000 -98.20000 94.00000
v 2.26274 -97.26274 94.00000
v 3.20000 -95.00000 94.00000
v 2.26274 -92.73726 94.00000
v 0.00000 -91.80000 109.00000
v -2.26274 -92.73726 109.00000
v -3.20000 -95.00000 109.00000
v -2.26274 -97.26274 109.00000
v -0.00000 -98.20000 109.00000
v 2.26274 -97.26274 109.00000
v 3.20000 -95.00000 109.00000
v 2.26274 -92.73726 109.00000
v -55.00000 28.00706 49.63039
v -56.00713 28.24083 50.42031
v -56.42429 27.74773 51.54980
v -56.00713 26.81663 52.35723
v -55.00000 25.99294 52.36961
v -53.99287 25.75917 51.57969
v -53.57571 26.25227 50.45020
v -53.99287 27.18337 49.64277
v 0.00000 96.00706 99.63039
v -1.00713 96.24083 100.42031
v -1.42429 95.74773 101.54980
v -1.00713 94.81663 102.35723
v -0.00000 93.99294 102.36961
v 1.00713 93.75917 101.57969
v 1.42429 94.25227 100.45020
v 1.00713 95.18337 99.64277
v 55.00000 28.00706 49.63039
v 53.99287 27.18337 49.64277
v 53.57571 26.25227 50.45020
v 53.99287 25.75917 51.57969
v 55.00000 25.99294 52.36961
v 56.00713 26.81663 52.35723
v 56.42429 27.74773 51.54980
v 56.00713 28.24083 50.42031
v 0.00000 96.00706 99.63039
v -1.00713 95.18337 99.64277
v -1.42429 94.25227 100.45020
v -1.00713 93.75917 101.57969
v -0.00000 93.99294 102.36961
v 1.00713 94.81663 102.35723
v 1.42429 95.74773 101.54980
v 1.00713 96.24083 100.42031
v 0.00000 98.20000 94.00000
v -2.26274 97.26274 94.00000
v -3.20000 95.00000 94.00000
v -2.26274 92.73726 94.00000
v -0.00000 91.80000 94.00000
v 2.26274 92.73726 94.00000
v 3.20000 95.00000 94.00000
v 2.26274 97.26274 94.00000
v 0.00000 98.20000 109.00000
v -2.26274 97.26274 109.00000
v -3.20000 95.00000 109.00000
v -2.26274 92.73726 109.00000
v -0.00000 91.80000 109.00000
v 2.26274 92.73726 109.00000
v 3.20000 95.00000 109.00000
v 2.26274 97.26274 109.00000
usemtl Sheer
f 1 2 11 10
usemtl Shell
f 2 3 12 11
f 3 4 13 12
f 4 5 14 13
f 5 6 15 14
f 6 7 16 15
f 7 8 17 16
usemtl Sheer
f 8 9 18 17
f 10 11 20 19
usemtl Shell
f 11 12 21 20
f 12 13 22 21
f 13 14 23 22
f 14 15 24 23
f 15 16 25 24
f 16 17 26 25
usemtl Sheer
f 17 18 27 26
f 19 20 29 28
usemtl Shell
f 20 21 30 29
f 21 22 31 30
f 22 23 32 31
f 23 24 33 32
f 24 25 34 33
f 25 26 35 34
usemtl Sheer
f 26 27 36 35
f 28 29 38 37
usemtl Shell
f 29 30 39 38
f 30 31 40 39
f 31 32 41 40
f 32 33 42 41
f 33 34 43 42
f 34 35 44 43
usemtl Sheer
f 35 36 45 44
f 37 38 47 46
usemtl Shell
f 38 39 48 47
f 39 40 49 48
f 40 41 50 49
f 41 42 51 50
f 42 43 52 51
f 43 44 53 52
usemtl Sheer
f 44 45 54 53
f 46 47 56 55
usemtl Shell
f 47 48 57 56
f 48 49 58 57
f 49 50 59 58
f 50 51 60 59
f 51 52 61 60
f 52 53 62 61
usemtl Sheer
f 53 54 63 62
f 55 56 65 64
usemtl Shell
f 56 57 66 65
f 57 58 67 66
f 58 59 68 67
f 59 60 69 68
f 60 61 70 69
f 61 62 71 70
usemtl Sheer
f 62 63 72 71
f 64 65 74 73
usemtl Shell
f 65 66 75 74
f 66 67 76 75
f 67 68 77 76
f 68 69 78 77
f 69 70 79 78
f 70 71 80 79
usemtl Sheer
f 71 72 81 80
f 73 74 83 82
usemtl Shell
f 74 75 84 83
f 75 76 85 84
f 76 77 86 85
f 77 78 87 86
f 78 79 88 87
f 79 80 89 88
usemtl Sheer
f 80 81 90 89
f 82 83 92 91
usemtl Shell
f 83 84 93 92
f 84 85 94 93
f 85 86 95 94
f 86 87 96 95
f 87 88 97 96
f 88 89 98 97
usemtl Sheer
f 89 90 99 98
f 91 92 101 100
usemtl Shell
f 92 93 102 101
f 93 94 103 102
f 94 95 104 103
f 95 96 105 104
f 96 97 106 105
f 97 98 107 106
usemtl Sheer
f 98 99 108 107
f 100 101 110 109
usemtl Shell
f 101 102 111 110
f 102 103 112 111
f 103 104 113 112
f 104 105 114 113
f 105 106 115 114
f 106 107 116 115
usemtl Sheer
f 107 108 117 116
usemtl Shell
f 9 8 7 6 5 4 3 2 1
f 109 110 111 112 113 114 115 116 117
usemtl Deck
f 1 10 18 9
f 10 19 27 18
f 19 28 36 27
f 28 37 45 36
f 37 46 119 118
f 120 121 54 45
usemtl Cockpit
f 122 123 125 124
f 118 119 123 122
f 124 125 121 120
f 118 122 124 120
usemtl Deck
f 46 55 127 126
f 128 129 63 54
usemtl Cockpit
f 130 131 133 132
f 126 127 131 130
f 132 133 129 128
usemtl Deck
f 55 64 135 134
f 136 137 72 63
usemtl Cockpit
f 138 139 141 140
f 134 135 139 138
f 140 141 137 136
usemtl Deck
f 64 73 143 142
f 144 145 81 72
usemtl Cockpit
f 146 147 149 148
f 142 143 147 146
f 148 149 145 144
f 147 143 145 149
usemtl Deck
f 73 82 90 81
f 82 91 99 90
f 91 100 108 99
f 100 109 117 108
usemtl Rigger
f 150 151 159 158
f 151 152 160 159
f 152 153 161 160
f 153 154 162 161
f 154 155 163 162
f 155 156 164 163
f 156 157 165 164
f 157 150 158 165
f 157 156 155 154 153 152 151 150
f 158 159 160 161 162 163 164 165
f 166 167 175 174
f 167 168 176 175
f 168 169 177 176
f 169 170 178 177
f 170 171 179 178
f 171 172 180 179
f 172 173 181 180
f 173 166 174 181
f 173 172 171 170 169 168 167 166
f 174 175 176 177 178 179 180 181
usemtl Sheer
f 182 183 191 190
f 183 184 192 191
f 184 185 193 192
f 185 186 194 193
f 186 187 195 194
f 187 188 196 195
f 188 189 197 196
f 189 182 190 197
f 189 188 187 186 185 184 183 182
f 190 191 192 193 194 195 196 197
usemtl Rigger
f 198 199 207 206
f 199 200 208 207
f 200 201 209 208
f 201 202 210 209
f 202 203 211 210
f 203 204 212 211
f 204 205 213 212
f 205 198 206 213
f 205 204 203 202 201 200 199 198
f 206 207 208 209 210 211 212 213
f 214 215 223 222
f 215 216 224 223
f 216 217 225 224
f 217 218 226 225
f 218 219 227 226
f 219 220 228 227
f 220 221 229 228
f 221 214 222 229
f 221 220 219 218 217 216 215 214
f 222 223 224 225 226 227 228 229
usemtl Sheer
f 230 231 239 238
f 231 232 240 239
f 232 233 241 240
f 233 234 242 241
f 234 235 243 242
f 235 236 244 243
f 236 237 245 244
f 237 230 238 245
f 237 236 235 234 233 232 231 230
f 238 239 240 241 242 243 244 245
